<?xml version="1.0" encoding="iso-8859-1"?>
<!-- Uploaded to: SVG Repo, www.svgrepo.com, Generator: SVG Repo Mixer Tools -->
<svg version="1.1" id="Layer_1" xmlns="http://www.w3.org/2000/svg" xmlns:xlink="http://www.w3.org/1999/xlink" 
	 viewBox="0 0 512 512" xml:space="preserve">
<path style="fill:#ABECEC;" d="M306.637,462.769c0-18.645,0-73.143,0-73.143H205.363v56.264l22.506,39.385l78.769,11.253h33.758
	C321.752,496.527,306.637,481.414,306.637,462.769z"/>
<path style="fill:#D5F6F5;" d="M272.879,462.769V445.89h-67.516v16.879c0,18.645-15.114,33.758-33.758,33.758h135.033
	C287.994,496.527,272.879,481.414,272.879,462.769z"/>
<path style="fill:#027372;" d="M478.242,7.033h-33.758l33.758,382.593L512,344.615V40.791C512,22.224,496.809,7.033,478.242,7.033z"
	/>
<path style="fill:#02ACAB;" d="M478.242,40.791c0-18.567-15.191-33.758-33.758-33.758H33.758C15.191,7.033,0,22.224,0,40.791
	v303.824l478.242,45.011v-78.761l-45.011-135.037L478.242,40.791z"/>
<path style="fill:#ABECEC;" d="M478.242,344.615l-33.758,67.517h33.758c18.567,0,33.758-15.191,33.758-33.758v-33.758H478.242z"/>
<path style="fill:#D5F6F5;" d="M478.242,378.374v-33.758H0v33.758c0,18.567,15.191,33.758,33.758,33.758h410.725
	C463.051,412.132,478.242,396.941,478.242,378.374z"/>
<path style="fill:#81E3E2;" d="M407.911,504.967H104.087c-4.661,0-8.44-3.778-8.44-8.44s3.779-8.44,8.44-8.44h303.824
	c4.662,0,8.44,3.778,8.44,8.44S412.573,504.967,407.911,504.967z"/>
<circle style="fill:#027372;" cx="256" cy="378.374" r="8.44"/>
<polygon style="fill:#FFFFFF;" points="33.758,85.802 33.758,310.857 478.242,310.857 478.242,85.802 256,63.297 "/>
<polygon style="fill:#FE834D;" points="331.956,40.791 309.451,63.297 331.956,85.802 478.242,85.802 478.242,40.791 "/>
<rect x="33.758" y="40.791" style="fill:#81E3E2;" width="298.198" height="45.011"/>
</svg>